# xmcd
#
# Track frame offsets: 
#        150
#        17571
#        33044
#        48825
#        68131
#        81377
#        93647
#        103455
#        116961
#        123870
#        137775
#        150677
#        168326
#        185802
#        195339
#        214799
#        228680
#
# Disc length: 3152 seconds
#
# Revision: 0
# Processed by: cddbd v1.5.2PL0 Copyright (c) Steve Scherf et al.
# Submitted via: ExactAudioCopyFreeDBPlugin 1.0
#
DISCID=ef0c4e11
DTITLE=Pino Daniele - Terra mia - exstended edition
DYEAR=2015
DGENRE=Blues
TTITLE0=Napule è
TTITLE1='Na tazzunella 'e cafè
TTITLE2=Ce sta chi ce penza
TTITLE3=Suonno d'ajere
TTITLE4=Maronna mia
TTITLE5=Saglie, saglie
TTITLE6=Terra mia
TTITLE7=Che calore
TTITLE8=Chi po dicere
TTITLE9=Fortunato
TTITLE10=Cammina Cammina
TTITLE11='O padrone
TTITLE12=Libertà
TTITLE13=Terra mia
TTITLE14=Saglie, saglie - alternative version
TTITLE15=Che calore - provino
TTITLE16=Chi po dicere - demo
EXTD=
EXTT0=
EXTT1=
EXTT2=
EXTT3=
EXTT4=
EXTT5=
EXTT6=
EXTT7=
EXTT8=
EXTT9=
EXTT10=
EXTT11=
EXTT12=
EXTT13=
EXTT14=
EXTT15=
EXTT16=
PLAYORDER=
